<svg viewBox="0 0 188 159" fill="none"
    xmlns="http://www.w3.org/2000/svg">
    <path d="M183.075 133.379C183.315 133.728 183.54 134.093 183.789 134.434C184.329 135.181 184.03 135.405 183.232 135.405C176.715 135.405 170.198 135.405 163.681 135.405C163.384 135.393 163.095 135.301 162.845 135.139C162.595 134.977 162.393 134.75 162.261 134.483C159.462 130.43 130.592 88.6205 123.126 77.8566C119.513 72.649 116.074 67.3252 112.569 62.0761C111.157 59.9499 109.646 57.9234 108.084 55.8803C107.854 55.55 107.541 55.2857 107.177 55.1138C106.812 54.9419 106.41 54.8682 106.008 54.9002C103.882 54.95 101.756 54.9002 99.6377 54.9002C98.1593 54.9002 98.1426 54.9002 98.1426 56.3703C98.1426 67.771 98.1426 79.1744 98.1426 90.5806C98.1426 90.863 98.1426 91.1454 98.1426 91.4112C98.1426 93.0723 98.1427 93.0722 96.4816 93.0722H80.4437C78.8573 93.0722 78.7826 93.0224 78.7826 91.4942C78.7826 62.2422 78.7826 32.9931 78.7826 3.74667C78.7826 2.68357 79.0401 2.17688 80.1779 1.98586C84.6753 1.2142 89.2112 0.687449 93.7657 0.407857C98.0098 0.158692 102.246 -0.115383 106.498 0.0507266C114.131 0.0586129 121.687 1.57427 128.732 4.51074C132.646 6.1098 136.037 8.76866 138.524 12.1886C141.011 15.6085 142.495 19.6541 142.81 23.8709C143.443 28.4858 143 33.1849 141.514 37.5998C139.51 42.8168 135.617 47.0891 130.609 49.5681C129.778 50.0415 128.84 50.4734 127.943 50.8803C127.453 51.1046 127.419 51.3288 127.727 51.7607C139.371 67.9066 178.664 126.851 183.075 133.379ZM103.043 39.5267C106.933 39.6407 110.822 39.2696 114.621 38.4221C116.904 37.9834 118.98 36.8054 120.527 35.0698C122.075 33.3341 123.008 31.1375 123.183 28.8188C123.357 26.5001 122.764 24.1884 121.494 22.2404C120.225 20.2924 118.349 18.8164 116.157 18.0404C110.567 16.4516 104.709 16.0304 98.9483 16.8029C98.2921 16.861 98.1177 17.2347 98.1177 17.7995C98.1177 24.6986 98.1177 31.595 98.1177 38.4885C98.1177 39.3191 98.4583 39.5516 99.2058 39.535C100.535 39.535 101.805 39.5599 103.076 39.5599L103.043 39.5267Z" fill="#009E98"/>
    <path d="M43.7083 90.8131C37.0085 91.0841 30.3207 90.0372 24.0243 87.7317C19.073 85.8933 14.6065 82.9492 10.9651 79.1235C7.32368 75.2979 4.60339 70.6917 3.01137 65.6558C1.33122 60.6133 0.366684 55.3601 0.145964 50.0497C-0.285626 44.0029 0.241353 37.9257 1.70739 32.0434C3.44403 24.9886 6.99758 18.5115 12.0145 13.2564C17.5496 7.58708 24.6683 3.72223 32.4377 2.16851C43.3409 -0.190572 54.6962 0.692899 65.1033 4.70999C66.8169 5.39922 68.4818 6.20394 70.0865 7.11859C70.2024 7.15776 70.3082 7.22207 70.3963 7.30685C70.4845 7.39164 70.5528 7.49485 70.5965 7.60911C70.6401 7.72336 70.658 7.8458 70.6488 7.96776C70.6396 8.08972 70.6036 8.20819 70.5434 8.31462C68.8546 13.01 67.1935 17.7164 65.56 22.4339C65.286 23.2645 64.9039 23.2645 64.2146 22.9239C59.9063 20.7509 55.2618 19.3216 50.4773 18.6965C45.7082 17.9258 40.8297 18.1806 36.1669 19.444C33.2233 20.3372 30.517 21.878 28.2463 23.9533C25.9756 26.0285 24.1981 28.5856 23.0442 31.4371C21.2458 35.7279 20.3686 40.3486 20.4695 45C20.2883 49.9643 21.0347 54.9188 22.6705 59.6093C23.8997 63.1844 26.1087 66.3422 29.0457 68.7226C31.9826 71.103 35.5294 72.6103 39.2815 73.0725C46.7437 74.1615 54.3589 73.4116 61.4654 70.8882C62.9328 70.3645 64.3668 69.7515 65.7594 69.0527C66.4654 68.7205 66.7477 68.8949 66.9886 69.5926C68.5556 74.2215 70.1447 78.8421 71.756 83.4544C72.0383 84.285 71.756 84.5923 71.1081 84.9411C65.7713 87.5948 60.0371 89.3594 54.1317 90.1652C50.6846 90.7021 47.1953 90.919 43.7083 90.8131Z" fill="#009E98"/>
    <path d="M127.386 158.145C127.386 158.145 115.376 123.494 162.469 102.008C168.504 99.4304 173.738 95.2814 177.625 89.9934C181.512 84.7055 183.91 78.4719 184.569 71.9421C184.569 71.9421 194.91 93.2374 179.686 106.543C166.87 117.797 137.378 119.599 127.386 158.145Z" fill="#F1B71A"/>
</svg>
