<svg xmlns="http://www.w3.org/2000/svg" width="198.084" height="198.06" viewBox="0 0 198.084 198.06"><g fill="#FFF"><path d="M14.079 99.039c0 33.629 19.542 62.695 47.886 76.464L21.436 64.461a84.64 84.64 0 0 0-7.357 34.578zm142.318-4.286c0-10.504-3.773-17.773-7.005-23.432-4.306-7.002-8.346-12.926-8.346-19.928 0-7.809 5.922-15.079 14.268-15.079.377 0 .734.046 1.101.069-15.115-13.85-35.255-22.307-57.374-22.307-29.684 0-55.796 15.231-70.988 38.294 1.995.064 3.874.103 5.468.103 8.885 0 22.644-1.08 22.644-1.08 4.578-.268 5.119 6.46.543 7.002 0 0-4.604.539-9.723.808l30.938 92.032 18.596-55.763-13.236-36.268a156.453 156.453 0 0 1-8.912-.808c-4.58-.271-4.042-7.27.539-7.002 0 0 14.028 1.08 22.376 1.08 8.884 0 22.646-1.08 22.646-1.08 4.58-.268 5.12 6.46.542 7.002 0 0-4.609.539-9.724.808l30.705 91.331 8.477-28.314c3.668-11.758 6.465-20.197 6.465-27.468z"/><path d="M100.533 106.471l-25.495 74.074a84.94 84.94 0 0 0 24.003 3.462 84.808 84.808 0 0 0 28.214-4.816 7.79 7.79 0 0 1-.608-1.171l-26.114-71.549zm73.063-48.193c.365 2.706.571 5.609.571 8.737 0 8.618-1.614 18.31-6.461 30.431l-25.95 75.03c25.259-14.728 42.246-42.093 42.246-73.438 0-14.771-3.774-28.659-10.406-40.76z"/><path d="M99.041 0C44.429 0 0 44.428 0 99.039c0 54.615 44.429 99.044 99.041 99.044 54.612 0 99.043-44.43 99.043-99.044C198.084 44.428 153.653 0 99.041 0zm0 193.542c-52.106 0-94.499-42.396-94.499-94.503 0-52.106 42.393-94.497 94.499-94.497 52.106 0 94.5 42.391 94.5 94.497.001 52.107-42.394 94.503-94.5 94.503z"/></g></svg>